<svg width="245" height="105" viewBox="0 0 245 105" fill="none" xmlns="http://www.w3.org/2000/svg">
<path d="M58.0692 47.1273L53.0961 55.7363C52.8746 56.1199 52.5561 56.4384 52.1725 56.6598C51.789 56.8812 51.3539 56.9978 50.911 56.9978C50.4681 56.9978 50.0331 56.8812 49.6495 56.6598C49.2659 56.4384 48.9474 56.1199 48.726 55.7363L48.0851 54.6261C47.8636 54.2426 47.5451 53.9241 47.1616 53.7027C46.778 53.4812 46.3429 53.3647 45.9 53.3647C45.4572 53.3647 45.0221 53.4812 44.6385 53.7027C44.255 53.9241 43.9364 54.2426 43.715 54.6261L30.8595 76.893C30.6381 77.2766 30.3195 77.5951 29.936 77.8165C29.5524 78.038 29.1173 78.1546 28.6744 78.1546H18.7282C18.2853 78.1546 17.8502 78.038 17.4666 77.8165C17.0831 77.595 16.7645 77.2765 16.5431 76.893C16.3217 76.5094 16.2051 76.0743 16.2051 75.6314C16.2051 75.1885 16.3217 74.7534 16.5431 74.3698L43.7074 27.313C43.9289 26.9294 44.2474 26.611 44.6309 26.3895C45.0145 26.1681 45.4496 26.0515 45.8925 26.0515C46.3354 26.0515 46.7704 26.1681 47.154 26.3895C47.5375 26.611 47.8561 26.9294 48.0775 27.313L58.0616 44.6042C58.2842 44.9871 58.4021 45.4218 58.4035 45.8647C58.4048 46.3076 58.2895 46.7431 58.0692 47.1273Z" fill="#00ADB5"/>
<path d="M73.1929 78.1545H63.0876C62.6569 78.1551 62.2337 78.0421 61.8607 77.8267C61.4877 77.6114 61.1781 77.3015 60.9631 76.9282C60.7474 76.5556 60.6338 76.1326 60.6338 75.702C60.6338 75.2714 60.7474 74.8484 60.9631 74.4757L66.0095 65.7229C66.2248 65.3504 66.5344 65.0411 66.907 64.8261C67.2797 64.6111 67.7024 64.4979 68.1327 64.4979C68.563 64.4979 68.9857 64.6111 69.3583 64.8261C69.731 65.0411 70.0406 65.3504 70.2559 65.7229L75.3022 74.4757C75.5169 74.8475 75.6302 75.2691 75.6308 75.6984C75.6315 76.1276 75.5194 76.5496 75.3059 76.922C75.0924 77.2944 74.7848 77.6042 74.414 77.8205C74.0432 78.0368 73.6221 78.152 73.1929 78.1545Z" fill="#00ADB5"/>
<path d="M100.319 78.1546H90.3857C89.9428 78.1546 89.5077 78.038 89.1242 77.8165C88.7406 77.5951 88.4221 77.2766 88.2007 76.893L75.3326 54.6261C75.1111 54.2426 74.7926 53.9241 74.409 53.7027C74.0255 53.4812 73.5904 53.3647 73.1475 53.3647C72.7046 53.3647 72.2695 53.4812 71.886 53.7027C71.5024 53.9241 71.1839 54.2426 70.9625 54.6261L58.1095 76.893C57.8881 77.2766 57.5696 77.5951 57.186 77.8165C56.8024 78.038 56.3673 78.1546 55.9245 78.1546H45.9782C45.5353 78.1546 45.1002 78.038 44.7166 77.8165C44.3331 77.595 44.0145 77.2765 43.7931 76.893C43.5717 76.5094 43.4551 76.0743 43.4551 75.6314C43.4551 75.1885 43.5717 74.7534 43.7931 74.3698L70.9574 27.313C71.1789 26.9294 71.4974 26.611 71.8809 26.3895C72.2645 26.1681 72.6996 26.0515 73.1425 26.0515C73.5854 26.0515 74.0204 26.1681 74.404 26.3895C74.7875 26.611 75.1061 26.9294 75.3275 27.313L102.497 74.3698C102.718 74.7528 102.835 75.1872 102.835 75.6295C102.835 76.0718 102.719 76.5063 102.499 76.8897C102.278 77.273 101.961 77.5917 101.578 77.8137C101.196 78.0357 100.762 78.1532 100.319 78.1546V78.1546Z" fill="#EEEEEE"/>
<path d="M121.376 52.2997C121.376 50.5657 121.751 49.0235 122.502 47.6729C123.252 46.3058 124.294 45.247 125.628 44.4967C126.978 43.7298 128.504 43.3463 130.204 43.3463C132.289 43.3463 134.073 43.8965 135.556 44.9969C137.04 46.0973 138.032 47.5979 138.533 49.4986H133.831C133.481 48.765 132.98 48.2065 132.33 47.823C131.697 47.4395 130.971 47.2478 130.154 47.2478C128.837 47.2478 127.77 47.7063 126.953 48.6233C126.136 49.5403 125.728 50.7658 125.728 52.2997C125.728 53.8336 126.136 55.0591 126.953 55.9761C127.77 56.8931 128.837 57.3516 130.154 57.3516C130.971 57.3516 131.697 57.1599 132.33 56.7764C132.98 56.3929 133.481 55.8344 133.831 55.1008H138.533C138.032 57.0015 137.04 58.502 135.556 59.6025C134.073 60.6862 132.289 61.2281 130.204 61.2281C128.504 61.2281 126.978 60.8529 125.628 60.1026C124.294 59.3357 123.252 58.277 122.502 56.9264C121.751 55.5759 121.376 54.0337 121.376 52.2997ZM144.928 49.4736C145.428 48.7067 146.053 48.1064 146.804 47.6729C147.554 47.2228 148.388 46.9977 149.305 46.9977V51.5244H148.129C147.062 51.5244 146.262 51.7578 145.728 52.2247C145.195 52.6748 144.928 53.4751 144.928 54.6256V61.103H140.651V47.1477H144.928V49.4736ZM157.201 61.3031C155.834 61.3031 154.6 61.0113 153.5 60.4278C152.416 59.8442 151.557 59.0106 150.924 57.9268C150.307 56.8431 149.998 55.5759 149.998 54.1254C149.998 52.6915 150.315 51.4327 150.949 50.349C151.582 49.2485 152.449 48.4066 153.55 47.823C154.65 47.2394 155.884 46.9477 157.251 46.9477C158.618 46.9477 159.852 47.2394 160.952 47.823C162.053 48.4066 162.92 49.2485 163.553 50.349C164.187 51.4327 164.504 52.6915 164.504 54.1254C164.504 55.5593 164.179 56.8264 163.528 57.9268C162.895 59.0106 162.019 59.8442 160.902 60.4278C159.802 61.0113 158.568 61.3031 157.201 61.3031ZM157.201 57.6017C158.018 57.6017 158.71 57.3016 159.277 56.7014C159.86 56.1011 160.152 55.2425 160.152 54.1254C160.152 53.0083 159.869 52.1496 159.302 51.5494C158.752 50.9492 158.068 50.6491 157.251 50.6491C156.417 50.6491 155.725 50.9492 155.175 51.5494C154.625 52.133 154.35 52.9916 154.35 54.1254C154.35 55.2425 154.617 56.1011 155.15 56.7014C155.7 57.3016 156.384 57.6017 157.201 57.6017ZM186.305 47.1477L182.529 61.103H177.802L175.601 52.0496L173.325 61.103H168.623L164.822 47.1477H169.098L171.074 57.1265L173.425 47.1477H177.952L180.328 57.0765L182.278 47.1477H186.305ZM186.585 54.1004C186.585 52.6665 186.852 51.4077 187.386 50.3239C187.936 49.2402 188.678 48.4066 189.611 47.823C190.545 47.2394 191.587 46.9477 192.738 46.9477C193.655 46.9477 194.488 47.1394 195.239 47.5229C196.006 47.9064 196.606 48.4232 197.039 49.0735V42.596H201.316V61.103H197.039V59.1023C196.639 59.7692 196.064 60.3027 195.314 60.7029C194.58 61.103 193.721 61.3031 192.738 61.3031C191.587 61.3031 190.545 61.0113 189.611 60.4278C188.678 59.8275 187.936 58.9856 187.386 57.9018C186.852 56.8014 186.585 55.5343 186.585 54.1004ZM197.039 54.1254C197.039 53.0583 196.739 52.2163 196.139 51.5994C195.555 50.9825 194.838 50.6741 193.988 50.6741C193.138 50.6741 192.413 50.9825 191.812 51.5994C191.229 52.1997 190.937 53.0333 190.937 54.1004C190.937 55.1674 191.229 56.0178 191.812 56.6513C192.413 57.2682 193.138 57.5767 193.988 57.5767C194.838 57.5767 195.555 57.2682 196.139 56.6513C196.739 56.0344 197.039 55.1925 197.039 54.1254ZM210.262 61.3031C208.895 61.3031 207.661 61.0113 206.561 60.4278C205.477 59.8442 204.618 59.0106 203.985 57.9268C203.368 56.8431 203.059 55.5759 203.059 54.1254C203.059 52.6915 203.376 51.4327 204.01 50.349C204.643 49.2485 205.51 48.4066 206.611 47.823C207.711 47.2394 208.945 46.9477 210.312 46.9477C211.679 46.9477 212.913 47.2394 214.014 47.823C215.114 48.4066 215.981 49.2485 216.614 50.349C217.248 51.4327 217.565 52.6915 217.565 54.1254C217.565 55.5593 217.24 56.8264 216.589 57.9268C215.956 59.0106 215.081 59.8442 213.963 60.4278C212.863 61.0113 211.629 61.3031 210.262 61.3031ZM210.262 57.6017C211.079 57.6017 211.771 57.3016 212.338 56.7014C212.921 56.1011 213.213 55.2425 213.213 54.1254C213.213 53.0083 212.93 52.1496 212.363 51.5494C211.813 50.9492 211.129 50.6491 210.312 50.6491C209.478 50.6491 208.787 50.9492 208.236 51.5494C207.686 52.133 207.411 52.9916 207.411 54.1254C207.411 55.2425 207.678 56.1011 208.211 56.7014C208.762 57.3016 209.445 57.6017 210.262 57.6017Z" fill="#EEEEEE"/>
</svg>
